<svg width="25" height="25" viewBox="0 0 25 25" fill="none" xmlns="http://www.w3.org/2000/svg">
<circle cx="12.5" cy="12.5" r="12.5" fill="#65A844"/>
<g clip-path="url(#clip0)">
<path d="M16.6863 11.478H13.1057V7.89743C13.1057 7.44805 12.7414 7.0835 12.2918 7.0835C11.8422 7.0835 11.4779 7.44784 11.4779 7.89743V11.478H7.8977C7.44833 11.478 7.08398 11.8424 7.08398 12.2919C7.08398 12.7415 7.44812 13.1057 7.8977 13.1057H11.4783V16.6862C11.4783 17.1356 11.8426 17.5002 12.2922 17.5002C12.7418 17.5002 13.1061 17.1358 13.1061 16.6862V13.1057H16.6867C17.1363 13.1057 17.5007 12.7413 17.5007 12.2919C17.5007 11.8426 17.1359 11.478 16.6863 11.478Z" fill="white"/>
</g>
<defs>
<clipPath id="clip0">
<rect x="7.08398" y="7.0835" width="10.4167" height="10.4167" fill="white"/>
</clipPath>
</defs>
</svg>
